<mxfile modified="2023-08-28T07:00:54.793Z" host="app.diagrams.net" agent="Mozilla/5.0 (X11; Linux x86_64) AppleWebKit/537.36 (KHTML, like Gecko) Chrome/116.0.0.0 Safari/537.36" etag="2sfnqIje_jKimnWjr3ZO" version="21.6.9" type="github">
  <diagram id="C2fSY1v2SiZeoUbDoYyL" name="Page-1">
    <mxGraphModel dx="956" dy="465" grid="1" gridSize="10" guides="1" tooltips="1" connect="1" arrows="1" fold="1" page="1" pageScale="1" pageWidth="1169" pageHeight="827" math="0" shadow="0">
      <root>
        <mxCell id="0" />
        <mxCell id="1" parent="0" />
        <mxCell id="3ne1QswCM8ZiEu4GHsYG-5" value="QuadMesh" style="shape=image;verticalLabelPosition=top;verticalAlign=bottom;aspect=fixed;image=data:image/svg+xml,PHN2ZyB4bWxucz0iaHR0cDovL3d3dy53My5vcmcvMjAwMC9zdmciIHhtbG5zOnhsaW5rPSJodHRwOi8vd3d3LnczLm9yZy8xOTk5L3hsaW5rIiB2ZXJzaW9uPSIxLjEiIGlkPSJMYXllcl8xIiB4PSIwcHgiIHk9IjBweCIgd2lkdGg9IjQ4cHgiIGhlaWdodD0iNDhweCIgdmlld0JveD0iMCAwIDQ4IDQ4IiBlbmFibGUtYmFja2dyb3VuZD0ibmV3IDAgMCA0OCA0OCIgeG1sOnNwYWNlPSJwcmVzZXJ2ZSI+JiN4YTs8ZyBpZD0iY29sb3JfMjlfIj4mI3hhOwk8Zz4mI3hhOwkJPHBhdGggZmlsbD0iI0ZGREE4RSIgZD0iTTQ1LjQzOCwxNy4wOTZsMC4wMDMtMC4wMDdsLTE5LTlsLTAuMDAzLDAuMDA3Yy0wLjEzLTAuMDYzLTAuMjcyLTAuMTA0LTAuNDI3LTAuMTA0ICAgIHMtMC4yOTcsMC4wNDEtMC40MjcsMC4xMDRsLTAuMDAzLTAuMDA3bC0xOSw5bDAuMDAzLDAuMDA3Yy0wLjMzNiwwLjE2MS0wLjU3MywwLjQ5OS0wLjU3MywwLjg5NnYxNyAgICBjMCwwLjM5NywwLjIzNywwLjczNSwwLjU3MywwLjg5NmwtMC4wMDMsMC4wMDdsMjAsMTBsMC4wMDMtMC4wMDdjMC4xMywwLjA2MywwLjI3MiwwLjEwNCwwLjQyNywwLjEwNHMwLjI5Ny0wLjA0MSwwLjQyNy0wLjEwNCAgICBsMC4wMDMsMC4wMDdsMTgtOS4wMDFsLTAuMDAzLTAuMDA2YzAuMzM3LTAuMTYxLDAuNTczLTAuNDk5LDAuNTczLTAuODk2di0xOEM0Ni4wMTEsMTcuNTk1LDQ1Ljc3NSwxNy4yNTcsNDUuNDM4LDE3LjA5NnoiLz4mI3hhOwk8L2c+JiN4YTs8L2c+JiN4YTs8ZyBpZD0ib3V0bGluZV8yOF8iPiYjeGE7CTxnPiYjeGE7CQk8cGF0aCBmaWxsPSIjMzg0RDY4IiBkPSJNMy43MTMsMTAuNjczTDYuNTcsNy41MjFjNC43MzYtNC43MzUsOS43MDctNC43MjEsMTQuNDI4LDBsMi42MTEsMi40NzRsLTQuNTk4LTAuMDAyICAgIGMtMC41MzQtMC4wMDEtMS4wMDEsMC40NzUtMSwxczAuNDY2LDAuOTk5LDEsMWw3LjAyMSwwLjAwM2MwLjUzNSwwLjAwMiwwLjk4LTAuNDc4LDAuOTc5LTEuMDAzdi03Yy0wLjAwMi0wLjUyNS0wLjQ2Ni0wLjk5OS0xLTEgICAgcy0xLjAwMiwwLjQ3NS0xLDFsLTAuMDE2LDQuNzEzbC0yLjU3LTIuNTg5Yy01LjUwNS01LjUwNS0xMS44MzItNS40NTMtMTcuMjg0LDBMMi4yODUsOS4yNjljLTAuMzk1LDAuMzg4LTAuMzk1LDEuMDE3LDAsMS40MDQgICAgUzMuMzE5LDExLjA2MSwzLjcxMywxMC42NzN6IE00NS45NDEsMTUuNjQ2Yy0wLjAxMi0wLjAzNC0wLjAyOC0wLjA2My0wLjA0NS0wLjA5NmMtMC4wMzctMC4wNzQtMC4wODItMC4xNDEtMC4xMzUtMC4yMDIgICAgYy0wLjAyNC0wLjAyNy0wLjA0NS0wLjA1Ny0wLjA3Mi0wLjA4MmMtMC4wNzQtMC4wNjktMC4xNTYtMC4xMjktMC4yNDktMC4xNzRsMC4wMDEtMC4wMDNMMzAuNDM1LDguMDk0ICAgIGMtMC4xMy0wLjA2Mi0wLjI3MS0wLjEwMi0wLjQyNC0wLjEwMmMtMC41NTMsMC0xLDAuNDQ3LTEsMWMwLDAuNzI1LDAuODg2LDEuMDY2LDAuNzk4LDEuMDA1bC0wLjE3My0wLjA4ICAgIGMwLjExMiwwLjA0NSwwLjE1NSwwLjA2NywwLjE3MywwLjA4bDEyLjg3Niw1Ljk5NWwtMTIuNTE3LDUuOTYxbC01LjE1Ny0yLjU3OXYtNC4zODJjMC0wLjU1My0wLjQ0Ny0xLTEtMWMtMC41NTIsMC0xLDAuNDQ3LTEsMSAgICB2NC4zODJsLTUuMTU3LDIuNTc5TDUuMzM3LDE1Ljk5M2w4Ljk4OC00LjA2M2MwLjM5Ni0wLjEzMywwLjY4Ni0wLjQ5NSwwLjY4Ni0wLjkzN2MwLTAuNTUzLTAuNDQ4LTEtMS0xICAgIGMtMC4yNDEsMC0wLjM0MSwwLjA0Ni0wLjM0MSwwLjA0NkwyLjU4MiwxNS4wODlsMC4wMDEsMC4wMDNjLTAuMDkzLDAuMDQ1LTAuMTc1LDAuMTA0LTAuMjUsMC4xNzQgICAgYy0wLjAyNywwLjAyNS0wLjA0NywwLjA1NS0wLjA3MSwwLjA4MmMtMC4wNTMsMC4wNjItMC4wOTksMC4xMjgtMC4xMzYsMC4yMDJjLTAuMDE2LDAuMDMyLTAuMDMyLDAuMDYyLTAuMDQ1LDAuMDk2ICAgIGMtMC4wNDEsMC4xMDktMC4wNywwLjIyNC0wLjA3LDAuMzQ3djE5YzAsMC4zOTgsMC4yMzQsMC43MzksMC41NzEsMC45bC0wLjAwMSwwLjAwM2wyMSwxMGwwLjAwMS0wLjAwMyAgICBjMC4xMywwLjA2MiwwLjI3NCwwLjEsMC40MjksMC4xczAuMjk5LTAuMDM4LDAuNDI5LTAuMWwwLjAwMSwwLjAwM2wyMS0xMGwtMC4wMDEtMC4wMDNjMC4zMzctMC4xNjEsMC41NzEtMC41MDIsMC41NzEtMC45di0xOSAgICBDNDYuMDExLDE1Ljg3LDQ1Ljk4MiwxNS43NTUsNDUuOTQxLDE1LjY0NnogTTIzLjAxMSw0My40MDlsLTE5LTkuMDQ4VjE3LjU3N2wxOSw5LjA0OFY0My40MDl6IE0yNC4wMTEsMjQuODg1bC0zLjg2Ni0xLjg0MiAgICBsMy44NjYtMS45MzNsMy44NjYsMS45MzNMMjQuMDExLDI0Ljg4NXogTTQ0LjAxMSwzNC4zNjFsLTE5LDkuMDQ4VjI2LjYyNWwxOS05LjA0OFYzNC4zNjF6Ii8+JiN4YTsJPC9nPiYjeGE7PC9nPiYjeGE7PC9zdmc+;labelPosition=center;align=center;" parent="1" vertex="1">
          <mxGeometry x="391" y="120.00000000000034" width="48" height="48" as="geometry" />
        </mxCell>
        <mxCell id="3ne1QswCM8ZiEu4GHsYG-7" value="PointCloud" style="shape=image;verticalLabelPosition=bottom;verticalAlign=top;aspect=fixed;image=data:image/svg+xml,PHN2ZyB4bWxucz0iaHR0cDovL3d3dy53My5vcmcvMjAwMC9zdmciIHhtbG5zOnhsaW5rPSJodHRwOi8vd3d3LnczLm9yZy8xOTk5L3hsaW5rIiB2ZXJzaW9uPSIxLjEiIGlkPSJMYXllcl8xIiB4PSIwcHgiIHk9IjBweCIgd2lkdGg9IjQ4cHgiIGhlaWdodD0iNDhweCIgdmlld0JveD0iMCAwIDQ4IDQ4IiBlbmFibGUtYmFja2dyb3VuZD0ibmV3IDAgMCA0OCA0OCIgeG1sOnNwYWNlPSJwcmVzZXJ2ZSI+JiN4YTs8ZyBpZD0iY29sb3JfMjVfIj4mI3hhOwk8Zz4mI3hhOwkJPHBhdGggZmlsbD0iI0YxNjM2MiIgZD0iTTI3LDQxLjAxOWM5Ljk0MSwwLDE4LTguMDU5LDE4LTE4cy04LjA1OS0xOC0xOC0xOHMtMTgsOC4wNTktMTgsMThTMTcuMDU5LDQxLjAxOSwyNyw0MS4wMTl6ICAgICBNMTQuMDQzLDIzLjA5N2MwLjE2My0wLjE2LDAuMjY1LTAuMTg4LDAuMjY1LTAuMTg4bDIuNTIxLTEuMTMybDAuNDU2LTAuMTA1YzAuMjYxLDAsMC41MjEsMC4wOTgsMC43MiwwLjI5M2wwLjg4NiwwLjYgICAgbDMuMDAxLTIuODc4bC0zLjU5Ny0zLjUzNWMtMC4zOTgtMC4zOTEtMC42NDUtMC43NzYtMC4yNDgtMS4xNjdsMS4xOTEtMS4yNDljMC4zMDktMC4zMDQsMC42NjgtMC4zMzMsMS4wNDQtMC4xNjZsMC4wMDMtMC4wMDcgICAgbDUuMzM2LDIuMzg1bDIuNDk4LTIuMzc3YzAuNjk3LTAuNTk1LDIuMjE4LTEuMTcyLDMuNDEsMHMwLjQ1LDIuNDkzLTAuMDgzLDMuMjUzbC0yLjYsMi41NjFsMi4zOTMsNS4xNzVsLTAuMDA2LDAuMDAzICAgIGMwLjE3LDAuMzY4LDAuMTkyLDAuNzczLTAuMTE3LDEuMDc3bC0xLjEwOSwxLjA4NGMtMC4zOTcsMC4zOTEtMC44NzYsMC4yMjYtMS4yNzQtMC4xNjVsLTMuNTk3LTMuNTM1bC0yLjkyNiwyLjgwMmwwLjU2MywwLjgxMyAgICBjMC4xOTksMC4xOTUsMC4yOTgsMC40NTIsMC4yOTgsMC43MDhjMCwwLjE1My0wLjA0NywwLjMwMi0wLjExOSwwLjQ0MmwtMS4wNjksMi41NTJjMCwwLTAuMDI3LDAuMTAxLTAuMTksMC4yNjEgICAgYy0wLjM5OCwwLjM5MS0xLjA0MiwwLjM5MS0xLjQ0LDBjMCwwLTIuMTctMy41MzMtMi4yNDUtMy42MDZjLTAuMTI3LTAuMTI2LTMuOTY2LTIuNDgxLTMuOTY2LTIuNDgxICAgIEMxMy42NDYsMjQuMTIyLDEzLjY0NiwyMy40ODgsMTQuMDQzLDIzLjA5N3ogTTExLDQyLjAxOUg1Yy0wLjM5MSwwLTAuNzIxLDAuMjMtMC44ODUsMC41NThsLTAuMDA5LTAuMDA1bC0xLDJsMC4wMDksMC4wMDUgICAgQzMuMDQ3LDQ0LjcxMSwzLDQ0Ljg1OCwzLDQ1LjAxOWMwLDAuNTUzLDAuNDQ4LDEsMSwxaDZjMC4zOTEsMCwwLjcyMS0wLjIzLDAuODg1LTAuNTU4bDAuMDA5LDAuMDA1bDEtMmwtMC4wMDktMC4wMDUgICAgQzExLjk1Myw0My4zMjcsMTIsNDMuMTgsMTIsNDMuMDE5QzEyLDQyLjQ2NiwxMS41NTIsNDIuMDE5LDExLDQyLjAxOXogTTIyLDQyLjAxOWgtNmMtMC4zOTEsMC0wLjcyMSwwLjIzLTAuODg1LDAuNTU4ICAgIGwtMC4wMDktMC4wMDVsLTEsMmwwLjAwOSwwLjAwNUMxNC4wNDcsNDQuNzExLDE0LDQ0Ljg1OCwxNCw0NS4wMTljMCwwLjU1MywwLjQ0OCwxLDEsMWg2YzAuMzkxLDAsMC43MjEtMC4yMywwLjg4NS0wLjU1OCAgICBsMC4wMDksMC4wMDVsMS0ybC0wLjAwOS0wLjAwNUMyMi45NTMsNDMuMzI3LDIzLDQzLjE4LDIzLDQzLjAxOUMyMyw0Mi40NjYsMjIuNTUyLDQyLjAxOSwyMiw0Mi4wMTl6IE00NCw0Mi4wMTloLTYgICAgYy0wLjM5MSwwLTAuNzIxLDAuMjMtMC44ODUsMC41NThsLTAuMDA5LTAuMDA1bC0xLDJsMC4wMDksMC4wMDVDMzYuMDQ3LDQ0LjcxMSwzNiw0NC44NTgsMzYsNDUuMDE5YzAsMC41NTMsMC40NDgsMSwxLDFoNiAgICBjMC4zOTEsMCwwLjcyMS0wLjIzLDAuODg1LTAuNTU4bDAuMDA5LDAuMDA1bDEtMmwtMC4wMDktMC4wMDVDNDQuOTUzLDQzLjMyNyw0NSw0My4xOCw0NSw0My4wMTkgICAgQzQ1LDQyLjQ2Niw0NC41NTIsNDIuMDE5LDQ0LDQyLjAxOXogTTMzLDQyLjAxOWgtNmMtMC4zOTEsMC0wLjcyMSwwLjIzLTAuODg1LDAuNTU4bC0wLjAwOS0wLjAwNWwtMSwybDAuMDA5LDAuMDA1ICAgIEMyNS4wNDcsNDQuNzExLDI1LDQ0Ljg1OCwyNSw0NS4wMTljMCwwLjU1MywwLjQ0OCwxLDEsMWg2YzAuMzkxLDAsMC43MjEtMC4yMywwLjg4NS0wLjU1OGwwLjAwOSwwLjAwNWwxLTJsLTAuMDA5LTAuMDA1ICAgIEMzMy45NTMsNDMuMzI3LDM0LDQzLjE4LDM0LDQzLjAxOUMzNCw0Mi40NjYsMzMuNTUyLDQyLjAxOSwzMyw0Mi4wMTl6Ii8+JiN4YTsJPC9nPiYjeGE7PC9nPiYjeGE7PGcgaWQ9Im91dGxpbmVfMjRfIj4mI3hhOwk8Zz4mI3hhOwkJPHBhdGggZmlsbD0iIzM4NEQ2OCIgZD0iTTI0LDEuOTgxYy0xMC41MDIsMC0xOS4wMTYsOC41MTQtMTkuMDE2LDE5LjAxNlMxMy40OTgsNDAuMDEyLDI0LDQwLjAxMnMxOS4wMTYtOC41MTQsMTkuMDE2LTE5LjAxNiAgICBTMzQuNTAyLDEuOTgxLDI0LDEuOTgxeiBNMjQsMzguMDExYy05LjM5NiwwLTE3LjAxNC03LjYxOC0xNy4wMTQtMTcuMDE1UzE0LjYwNCwzLjk4MywyNCwzLjk4M1M0MS4wMTQsMTEuNiw0MS4wMTQsMjAuOTk3ICAgIFMzMy4zOTYsMzguMDExLDI0LDM4LjAxMXogTTMxLjc3OCwxMy4yNDFjLTEuMTcyLTEuMTcyLTMuMDcxLTEuMTcyLTQuMjQzLDBsLTIuMjEyLDIuMjEybC01LjI0NS0yLjM4NGwtMC4wMDMsMC4wMDcgICAgYy0wLjM2OS0wLjE2OC0wLjcyMy0wLjEzOC0xLjAyNiwwLjE2NWwtMS40MTQsMS40MTRjLTAuMzkxLDAuMzkyLTAuMzkxLDEuMDIzLDAsMS40MTRsMy41MzUsMy41MzZsLTIuMzgzLDIuMzgzbC0wLjg3MS0wLjYgICAgYy0wLjE5Ni0wLjE5NS0wLjQ1Mi0wLjI5My0wLjcwOC0wLjI5M2wtMC40NDcsMC4xMDVsLTMuMjA3LDEuNzkyYzAsMC0wLjEsMC4wMjYtMC4yNiwwLjE4OGMtMC4zOTEsMC4zOTEtMC4zOTEsMS4wMjQsMCwxLjQxNSAgICBjMCwwLDQuMDk3LDIuNjg2LDQuMjIyLDIuODExYzAuMDc0LDAuMDczLDIuODU1LDQuMjY3LDIuODU1LDQuMjY3YzAuMzkxLDAuMzkxLDEuMDI0LDAuMzkxLDEuNDE2LDAgICAgYzAuMTYtMC4xNjEsMC4xODgtMC4yNjEsMC4xODgtMC4yNjFsMS43OC0zLjIxMmMwLjA3LTAuMTQxLDAuMTE3LTAuMjg5LDAuMTE3LTAuNDQyYzAtMC4yNTYtMC4wOTgtMC41MTItMC4yOTMtMC43MDcgICAgbC0wLjU1NC0wLjgxM2wyLjM4OS0yLjM5bDMuNTM2LDMuNTM2YzAuMzkxLDAuMzkxLDEuMDIzLDAuMzkxLDEuNDE0LDBsMS40MTUtMS40MTRjMC4zMDMtMC4zMDQsMC4yODItMC43MDksMC4xMTQtMS4wNzcgICAgbDAuMDA2LTAuMDAzbC0yLjM1Mi01LjE3NWwyLjIzMS0yLjIzQzMyLjk1LDE2LjMxMiwzMi45NSwxNC40MTMsMzEuNzc4LDEzLjI0MXogTTE5Ljc1NywxNS4zNjJsMC4xMjUtMC4xODRsMy45ODcsMS43MjkgICAgbC0xLjI4MywxLjI4NEwxOS43NTcsMTUuMzYyeiBNMjkuNzksMjUuMDg1bC0wLjEzMywwLjE3NmwtMi44MjgtMi44MjhsMS4yNzQtMS4yNzRMMjkuNzksMjUuMDg1eiBNMzAuMzY0LDE2LjA2OWwtOS44ODgsOS44ODkgICAgYzAuNzUyLDAuOTk5LDEuMTc4LDEuOTk4LDEuMTc4LDEuOTk4bC0wLjg0OCwxLjE3OWMwLDAtMS45NDQtMi45MzUtMi4wMTMtMy4wMDRjLTAuMTIxLTAuMTIxLTIuOTYtMS45NjktMi45Ni0xLjk2OWwxLjE3OS0wLjg0OCAgICBjMCwwLDEuMDUsMC40NTcsMi4wNTUsMS4yMjRsOS44ODItOS44ODNjMC4zOTEtMC4zOTEsMS4wMjQtMC4zOTEsMS40MTQsMEMzMC43NTQsMTUuMDQ1LDMwLjc1NCwxNS42NzksMzAuMzY0LDE2LjA2OXogTTI0LDUuOTg1ICAgIGMtOC4yOTEsMC0xNS4wMTIsNi43MjEtMTUuMDEyLDE1LjAxMlMxNS43MDksMzYuMDA5LDI0LDM2LjAwOXMxNS4wMTItNi43MjIsMTUuMDEyLTE1LjAxM1MzMi4yOTEsNS45ODUsMjQsNS45ODV6IE0yNCwzNC4wMDcgICAgYy03LjE4NiwwLTEzLjAxMS01LjgyNS0xMy4wMTEtMTMuMDExUzE2LjgxNCw3Ljk4NiwyNCw3Ljk4NnMxMy4wMTEsNS44MjUsMTMuMDExLDEzLjAxMVMzMS4xODYsMzQuMDA3LDI0LDM0LjAwN3oiLz4mI3hhOwk8L2c+JiN4YTs8L2c+JiN4YTs8L3N2Zz4=" parent="1" vertex="1">
          <mxGeometry x="731.0000000000001" y="350" width="48" height="48" as="geometry" />
        </mxCell>
        <mxCell id="3ne1QswCM8ZiEu4GHsYG-9" value="VoxelGrid" style="shape=image;verticalLabelPosition=top;verticalAlign=bottom;aspect=fixed;image=data:image/svg+xml,PHN2ZyB4bWxucz0iaHR0cDovL3d3dy53My5vcmcvMjAwMC9zdmciIHhtbG5zOnhsaW5rPSJodHRwOi8vd3d3LnczLm9yZy8xOTk5L3hsaW5rIiB2ZXJzaW9uPSIxLjEiIGlkPSJMYXllcl8xIiB4PSIwcHgiIHk9IjBweCIgd2lkdGg9IjQ4cHgiIGhlaWdodD0iNDhweCIgdmlld0JveD0iMCAwIDQ4IDQ4IiBlbmFibGUtYmFja2dyb3VuZD0ibmV3IDAgMCA0OCA0OCIgeG1sOnNwYWNlPSJwcmVzZXJ2ZSI+JiN4YTs8ZyBpZD0iY29sb3JfMzdfIj4mI3hhOwk8Zz4mI3hhOwkJPHBhdGggZmlsbD0iI0ZGREE4RSIgZD0iTTM0LDhMMTMsMThjMCwwLDAsOS4xNDYsMCwxMmMwLDAuMDc2LDAuMDE3LDAuMTQ4LDAuMDQ0LDAuMjE4QzEzLjE0NiwzMC42NjIsMTMuNTI1LDMxLDE0LDMxbDQuMzAzLDEuNzE0ICAgIEMxOC40ODMsMzIuODksMTguNzI5LDMzLDE5LDMzYzAuNTUzLDAsMS0wLjQ0NywxLTFjMC0wLjIsMC0xMCwwLTEwbDIxLTExTDM0LDh6Ii8+JiN4YTsJPC9nPiYjeGE7PC9nPiYjeGE7PGcgaWQ9Im91cmxpbmUiPiYjeGE7CTxnPiYjeGE7CQk8cGF0aCBmaWxsPSIjMzg0RDY4IiBkPSJNNDUuNDI3LDEyLjEwNGwwLjAwMy0wLjAwN2wtMjEtMTBDMjQuNDMsMi4wOTcsMjQuMzEzLDIsMjQsMnMtMC40MywwLjA5Ny0wLjQzLDAuMDk3bC0yMSwxMCAgICBjMCwwLDAuMDAxLDAuMDA0LDAuMDAyLDAuMDA1QzIuNDkzLDEyLjEzNiwyLDEyLjQwNCwyLDEzdjIyYzAsMC4zOTcsMC4yMzYsMC43MzUsMC41NzMsMC44OTZMMi41NywzNS45MDJsMjEsMTBsMC4wMDMtMC4wMDYgICAgQzIzLjcwNCw0NS45NTksMjMuODQ2LDQ2LDI0LDQ2czAuMjk2LTAuMDQxLDAuNDI3LTAuMTA0bDAuMDAzLDAuMDA2bDIxLTEwbC0wLjAwMy0wLjAwNkM0NS43NjQsMzUuNzM1LDQ2LDM1LjM5Nyw0NiwzNVYxMyAgICBDNDYsMTIuNzgxLDQ1Ljg3MiwxMi4zMTYsNDUuNDI3LDEyLjEwNHogTTM1LjAyNCw5LjM1N0wxNSwxOC42OTd2OS44MjZsLTMtMS4yVjE3bDE5LjczNi05LjIwOUwzNS4wMjQsOS4zNTd6IE0yNCw0LjEwNyAgICBsNS4zNzQsMi41NkwxMC43LDE1LjU1OUw1LjMyNiwxM0wyNCw0LjEwN3ogTTIzLDQzLjQxNkw0LDM0LjM2OFYxNC41ODRsNiwyLjg1N1YyOGMwLDAuNDIxLDAuMjYyLDAuNzc3LDAuNjMsMC45MjVsLTAuMDAxLDAuMDA0ICAgIGw0Ljk4MSwxLjk5MkMxNS4zODgsMzAuODI3LDE1Ljc1NSwzMSwxNiwzMWMwLjU1MywwLDEtMC40NDcsMS0xdi05LjIyNmw2LDIuODU3VjQzLjQxNnogTTI0LDIxLjg5M2wtNS40NzUtMi42MDdsMTguODQtOC44MTMgICAgTDQyLjY3NCwxM0wyNCwyMS44OTN6IE00NCwzNC4zNjhsLTE5LDkuMDQ4VjIzLjYzMmwxOS05LjA0OFYzNC4zNjh6Ii8+JiN4YTsJPC9nPiYjeGE7PC9nPiYjeGE7PC9zdmc+;labelPosition=center;align=center;" parent="1" vertex="1">
          <mxGeometry x="731" y="120.00000000000023" width="48" height="48" as="geometry" />
        </mxCell>
        <mxCell id="3ne1QswCM8ZiEu4GHsYG-31" value="3D Representation Convertion" style="text;html=1;strokeColor=none;fillColor=none;align=center;verticalAlign=middle;whiteSpace=wrap;rounded=0;fontStyle=1;fontSize=20;fontColor=#4D4D4D;" parent="1" vertex="1">
          <mxGeometry x="189.5" y="50" width="790" height="30" as="geometry" />
        </mxCell>
        <mxCell id="3ne1QswCM8ZiEu4GHsYG-32" value="" style="line;strokeWidth=2;html=1;fontSize=20;fontColor=#4D4D4D;" parent="1" vertex="1">
          <mxGeometry x="370" y="80" width="470" height="10" as="geometry" />
        </mxCell>
        <mxCell id="8kW4jAhZoe792NYYrkYr-2" value="TriangleMesh" style="shape=image;verticalLabelPosition=bottom;verticalAlign=top;aspect=fixed;image=data:image/svg+xml,PHN2ZyB4bWxucz0iaHR0cDovL3d3dy53My5vcmcvMjAwMC9zdmciIHhtbG5zOnhsaW5rPSJodHRwOi8vd3d3LnczLm9yZy8xOTk5L3hsaW5rIiB2ZXJzaW9uPSIxLjEiIGlkPSJMYXllcl8xIiB4PSIwcHgiIHk9IjBweCIgd2lkdGg9IjQwcHgiIGhlaWdodD0iNDRweCIgdmlld0JveD0iMCAwIDQwIDQ0IiBlbmFibGUtYmFja2dyb3VuZD0ibmV3IDAgMCA0MCA0NCIgeG1sOnNwYWNlPSJwcmVzZXJ2ZSI+JiN4YTs8ZyBpZD0iY29sb3JfMjBfIj4mI3hhOwk8Zz4mI3hhOwkJPHBhdGggZmlsbD0iIzg5OENDNSIgZD0iTTM2LDE4YzAtMC41NTMtMC40NDctMS0xLTFIMTBjLTAuNTUyLDAtMSwwLjQ0Ny0xLDFMNSw0M2MwLDAuNTUzLDAuNDQ4LDEsMSwxaDMzYzAuNTUzLDAsMS0wLjQ0NywxLTEgICAgTDM2LDE4eiIvPiYjeGE7CTwvZz4mI3hhOzwvZz4mI3hhOzxnIGlkPSJvdXRsaW5lXzE5XyI+JiN4YTsJPGc+JiN4YTsJCTxwYXRoIGZpbGw9IiMzODRENjgiIGQ9Ik0zOS45NzMsNDIuODYxbDAuMDE4LTAuMDAzbC00LTI4bC0wLjAxOCwwLjAwM0MzNS45MDIsMTQuMzc4LDM1LjUwMywxNCwzNSwxNGgtNXYtNCAgICBjMC01LjUyMi00LjQ3Ny0xMC0xMC0xMGMtNS41MjMsMC0xMCw0LjQ3OC0xMCwxMHY0SDVjLTAuNTAzLDAtMC45MDIsMC4zNzgtMC45NzIsMC44NjFMNC4wMSwxNC44NThsLTQsMjhsMC4wMTgsMC4wMDMgICAgQzAuMDIxLDQyLjkwOCwwLDQyLjk1MSwwLDQzYzAsMC41NTMsMC40NDgsMSwxLDFoMzhjMC41NTMsMCwxLTAuNDQ3LDEtMUM0MCw0Mi45NTEsMzkuOTc5LDQyLjkwOCwzOS45NzMsNDIuODYxeiBNMTIsMTAgICAgYzAtNC40MTgsMy41ODItOCw4LThjNC40MTgsMCw4LDMuNTgyLDgsOHY0aC0ydi00YzAtMy4zMTMtMi42ODctNi02LTZzLTYsMi42ODctNiw2djRoLTJWMTB6IE0yNCwxMHY0aC04di00YzAtMi4yMDksMS43OTEtNCw0LTQgICAgUzI0LDcuNzkxLDI0LDEweiBNMi4xNTMsNDJsMy43MTQtMjZoMjguMjY2bDMuNzE1LDI2SDIuMTUzeiBNMTIuMDQyLDMyLjk0N3YtOC4yOTVoLTEuNDd2OC40OWMwLDEuNSwxLjE3LDIuNjcsMi42ODUsMi42N2gxLjA5NSAgICB2LTEuNDcxaC0wLjkxNUMxMi42NTcsMzQuMzQyLDEyLjA0MiwzMy43MjgsMTIuMDQyLDMyLjk0N3ogTTE5LjcwNSwyNy41MzJoLTIuMjV2LTIuODhoLTEuNDd2MTEuMTZoMy43MiAgICBjMS41LDAsMi42Ny0xLjE3LDIuNjctMi42N3YtMi45NEMyMi4zNzUsMjguNzAyLDIxLjIwNSwyNy41MzIsMTkuNzA1LDI3LjUzMnogTTIwLjkwNSwzMi45NDdjMCwwLjc4LTAuNjE1LDEuMzk1LTEuMzk1LDEuMzk1ICAgIGgtMi4wNTV2LTUuMzU0aDIuMDU1YzAuNzgsMCwxLjM5NSwwLjYzLDEuMzk1LDEuMzk2VjMyLjk0N3ogTTI3LjExNywzMC45OTdoLTAuNzY2Yy0wLjU2OSwwLTEuMDQ5LTAuNDc5LTEuMDQ5LTEuMDY0ICAgIGMwLTAuNTcsMC40NzktMS4wNjUsMS4wNDktMS4wNjVoMi44MzZ2LTEuMzM1aC0yLjk1NWMtMS4zMzYsMC0yLjM3LDEuMDIxLTIuMzcsMi4zODVjMCwxLjM4LDEuMDM0LDIuNDE1LDIuMzcsMi40MTVoMC43NjUgICAgYzAuNTg1LDAsMS4wNjUsMC40OTUsMS4wNjUsMS4wOGMwLDAuNTctMC40OCwxLjA2NS0xLjA2NSwxLjA2NWgtMy4xMzV2MS4zMzVoMy4yNTVjMS4zMzUsMCwyLjM4NS0xLjAyMSwyLjM4NS0yLjQgICAgQzI5LjUwMiwzMi4wNDcsMjguNDUyLDMwLjk5NywyNy4xMTcsMzAuOTk3eiBNMzEuNDIyLDM1LjgxMmgxLjg1OXYtMS44NmgtMS44NTlWMzUuODEyeiIvPiYjeGE7CTwvZz4mI3hhOzwvZz4mI3hhOzwvc3ZnPg==" vertex="1" parent="1">
          <mxGeometry x="395" y="354" width="40" height="44" as="geometry" />
        </mxCell>
        <mxCell id="8kW4jAhZoe792NYYrkYr-12" value="SDF" style="shape=image;verticalLabelPosition=bottom;verticalAlign=top;aspect=fixed;image=data:image/svg+xml,PHN2ZyB4bWxucz0iaHR0cDovL3d3dy53My5vcmcvMjAwMC9zdmciIHhtbG5zOnhsaW5rPSJodHRwOi8vd3d3LnczLm9yZy8xOTk5L3hsaW5rIiB2ZXJzaW9uPSIxLjEiIGlkPSJMYXllcl8xIiB4PSIwcHgiIHk9IjBweCIgd2lkdGg9IjQ4cHgiIGhlaWdodD0iNDhweCIgdmlld0JveD0iMCAwIDQ4IDQ4IiBlbmFibGUtYmFja2dyb3VuZD0ibmV3IDAgMCA0OCA0OCIgeG1sOnNwYWNlPSJwcmVzZXJ2ZSI+JiN4YTs8ZyBpZD0iY29sb3JfNTJfIj4mI3hhOwk8Zz4mI3hhOwkJPHBhdGggZmlsbC1ydWxlPSJldmVub2RkIiBjbGlwLXJ1bGU9ImV2ZW5vZGQiIGZpbGw9IiNGRkRBOEUiIGQ9Ik00NS43NCwzNy4wMzZsLTYuMzg4LTYuNTI4YzEuMjYzLTIuMzIxLDEuOTg3LTQuOTksMS45ODctNy44MzQgICAgYzAtOC45MzEtNy4wOTItMTYuMTcxLTE1Ljg0MS0xNi4xNzFjLTguNzQ4LDAtMTUuODQxLDcuMjQtMTUuODQxLDE2LjE3MWMwLDIuODQxLDAuNzIzLDUuNTA4LDEuOTgzLDcuODI3bC02LjM4Myw2LjUxNyAgICBjLTAuMzcsMC4zNzctMC4yODMsMS4xNjcsMC4wODcsMS41NDRjMC4zMzEsMC4zMzgsMC41ODUsMC4yODMsMC41ODUsMC4yODNoNS41OTF2NS43MDdjMC4wMjIsMC4yMSwwLjEyMiwwLjQzOSwwLjI4LDAuNjAxICAgIGMwLjM2OSwwLjM3NywxLjExNCwwLjQzNywxLjQ4MywwLjA2bDcuMDk5LTcuMjQ2YzEuNjA2LDAuNTYxLDMuMzIyLDAuODc5LDUuMTE1LDAuODc5YzEuNzg3LDAsMy40OTktMC4zMTYsNS4xMDItMC44NzMgICAgbDcuMTEyLDcuMjdjMC4zNjksMC4zNzgsMS4xMTQsMC4zMTgsMS40ODMtMC4wNmMwLjE1OC0wLjE2MSwwLjI1Ny0wLjM5MSwwLjI4LTAuNjAydi01LjcxNGg1LjU5MWMwLDAsMC4yNTQsMC4wNTUsMC41ODUtMC4yODMgICAgQzQ2LjAyMSwzOC4yMDUsNDYuMTA5LDM3LjQxNCw0NS43NCwzNy4wMzZ6IE0zMS42MzUsMjQuMDk5YzIuMjk3LDcuODYsMC4wNjQsOS40NDktNi42OTYsNC43NjkgICAgYy02LjgxOCw0LjU5OC05LjAyOSwyLjk4MS02LjYzNS00Ljg1Yy02LjUxMi01LjAxOS01LjY0Ni03LjYwNiwyLjU5NC03Ljc2NmMyLjc5NC03LjY5OSw1LjU0MS03LjY4Myw4LjIzOSwwLjA1MSAgICBDMzcuMzc0LDE2LjU2MywzOC4yMDcsMTkuMTYxLDMxLjYzNSwyNC4wOTl6Ii8+JiN4YTsJPC9nPiYjeGE7PC9nPiYjeGE7PGcgaWQ9Im91dGxpbmVfNTBfIj4mI3hhOwk8Zz4mI3hhOwkJPHBhdGggZmlsbD0iIzM4NEQ2OCIgZD0iTTQ1LjcyMSwzNC42MDNsLTYuODU0LTYuODYzYzEuMzU1LTIuNDQsMi4xMzMtNS4yNDYsMi4xMzMtOC4yMzZjMC05LjM4OS03LjYxMS0xNy0xNy0xN3MtMTcsNy42MTEtMTcsMTcgICAgYzAsMi45ODYsMC43NzUsNS43OSwyLjEyOSw4LjIyOWwtNi44NTEsNi44NWMtMC4zOTYsMC4zOTYtMC4zMDMsMS4yMjgsMC4wOTQsMS42MjRjMC4zNTQsMC4zNTQsMC42MjgsMC4yOTcsMC42MjgsMC4yOTdoNnY2ICAgIGMwLjAyNCwwLjIyMSwwLjEzMSwwLjQ2MiwwLjMwMSwwLjYzMmMwLjM5NiwwLjM5NiwxLjE5NSwwLjQ1OSwxLjU5MiwwLjA2M2w3LjYxNy03LjYxOGMxLjcyNSwwLjU4OSwzLjU2NiwwLjkyNCw1LjQ5LDAuOTI0ICAgIGMxLjkxOCwwLDMuNzU1LTAuMzMyLDUuNDc1LTAuOTE4bDcuNjMzLDcuNjQzYzAuMzk2LDAuMzk3LDEuMTk1LDAuMzM1LDEuNTkyLTAuMDYzYzAuMTctMC4xNywwLjI3Ni0wLjQxMSwwLjMwMS0wLjYzMnYtNi4wMDhoNiAgICBjMCwwLDAuMjcyLDAuMDU4LDAuNjI4LTAuMjk4QzQ2LjAyMywzNS44MzEsNDYuMTE3LDM0Ljk5OSw0NS43MjEsMzQuNjAzeiBNMTAuOTUsNDAuMjY4di00Ljg2ICAgIGMtMC4wMjUtMC4yMjEtMC4xMDctMC40MzgtMC4yNzYtMC42MDdjLTAuMzM1LTAuMzM1LTAuNjA2LTAuMjkxLTAuNjA2LTAuMjkxbC00Ljg2MSwwLjAxNmw1LjA0Ny01LjA0NyAgICBjMS42MTUsMi4yMjEsMy43NDksNC4wMjksNi4yMyw1LjI1N0wxMC45NSw0MC4yNjh6IE0yMy45OTksMzQuNTAzYy04LjI4NCwwLTE1LTYuNzE2LTE1LTE1czYuNzE2LTE1LDE1LTE1czE1LDYuNzE2LDE1LDE1ICAgIFMzMi4yODMsMzQuNTAzLDIzLjk5OSwzNC41MDN6IE0zNy45MywzNC41MjljMCwwLTAuMjcxLTAuMDQ0LTAuNjA1LDAuMjkxYy0wLjE3LDAuMTctMC4yNTEsMC4zODctMC4yNzUsMC42MDh2NC44NjZsLTUuNTQ4LTUuNTU1ICAgIGMyLjQ4NC0xLjIyNiw0LjYyMS0zLjAzNCw2LjIzNy01LjI1NWw1LjA1NCw1LjA2TDM3LjkzLDM0LjUyOXogTTI4LjEzNywxNC4zMDNjLTIuNjk4LTcuNzMzLTUuNDQ1LTcuNzUtOC4yMzktMC4wNTEgICAgYy04LjI0LDAuMTU5LTkuMTA1LDIuNzQ3LTIuNTk0LDcuNzY2Yy0yLjM5NSw3LjgzMS0wLjE4NCw5LjQ0Nyw2LjYzNSw0Ljg1YzYuNzYxLDQuNjgxLDguOTkzLDMuMDkxLDYuNjk2LTQuNzY5ICAgIEMzNy4yMDcsMTcuMTYxLDM2LjM3NCwxNC41NjMsMjguMTM3LDE0LjMwM3ogTTI4LjIwNSwyMC45MjljMi41NTQsNy4zMjQsMS44MjMsNy44MzgtNC4yNTQsMi45NDUgICAgYy02LjAyMSw0Ljk2Ni02LjY3Niw0LjQwNC00LjIxNy0yLjk5NWMtNi4xMDYtMy42OTQtNS45OTQtNC43OTcsMS42NDgtNC43OTdjMi4xMTktNy4wMzgsMy4xMTQtNy4wNTksNS4yMzUsMC4wMyAgICBDMzQuMTk3LDE2LjExMiwzNC40NzYsMTcuMTYsMjguMjA1LDIwLjkyOXoiLz4mI3hhOwk8L2c+JiN4YTs8L2c+JiN4YTs8L3N2Zz4=" vertex="1" parent="1">
          <mxGeometry x="557.5" y="230" width="48" height="48" as="geometry" />
        </mxCell>
        <mxCell id="8kW4jAhZoe792NYYrkYr-15" style="orthogonalLoop=1;jettySize=auto;html=1;curved=1;sourcePerimeterSpacing=5;targetPerimeterSpacing=5;exitX=1;exitY=0.25;exitDx=0;exitDy=0;entryX=0.25;entryY=1;entryDx=0;entryDy=0;" edge="1" parent="1" source="8kW4jAhZoe792NYYrkYr-2" target="3ne1QswCM8ZiEu4GHsYG-9">
          <mxGeometry relative="1" as="geometry">
            <Array as="points">
              <mxPoint x="600" y="360" />
            </Array>
            <mxPoint x="461" y="390" as="sourcePoint" />
            <mxPoint x="639" y="448" as="targetPoint" />
          </mxGeometry>
        </mxCell>
        <mxCell id="8kW4jAhZoe792NYYrkYr-17" style="orthogonalLoop=1;jettySize=auto;html=1;curved=1;sourcePerimeterSpacing=5;targetPerimeterSpacing=5;exitX=1;exitY=0.75;exitDx=0;exitDy=0;entryX=0;entryY=0.75;entryDx=0;entryDy=0;" edge="1" parent="1" source="8kW4jAhZoe792NYYrkYr-2" target="3ne1QswCM8ZiEu4GHsYG-7">
          <mxGeometry relative="1" as="geometry">
            <mxPoint x="481" y="400" as="sourcePoint" />
            <mxPoint x="543" y="400" as="targetPoint" />
          </mxGeometry>
        </mxCell>
        <mxCell id="8kW4jAhZoe792NYYrkYr-20" style="orthogonalLoop=1;jettySize=auto;html=1;curved=1;sourcePerimeterSpacing=5;targetPerimeterSpacing=5;exitX=1;exitY=0;exitDx=0;exitDy=0;entryX=0.25;entryY=1;entryDx=0;entryDy=0;" edge="1" parent="1" source="8kW4jAhZoe792NYYrkYr-2" target="8kW4jAhZoe792NYYrkYr-12">
          <mxGeometry relative="1" as="geometry">
            <Array as="points">
              <mxPoint x="511" y="340" />
            </Array>
            <mxPoint x="461" y="140" as="sourcePoint" />
            <mxPoint x="639" y="198" as="targetPoint" />
          </mxGeometry>
        </mxCell>
        <mxCell id="8kW4jAhZoe792NYYrkYr-21" style="orthogonalLoop=1;jettySize=auto;html=1;curved=1;sourcePerimeterSpacing=5;targetPerimeterSpacing=5;exitX=0.75;exitY=1;exitDx=0;exitDy=0;entryX=0.75;entryY=0;entryDx=0;entryDy=0;" edge="1" parent="1" source="3ne1QswCM8ZiEu4GHsYG-9" target="3ne1QswCM8ZiEu4GHsYG-7">
          <mxGeometry relative="1" as="geometry">
            <mxPoint x="751" y="211" as="sourcePoint" />
            <mxPoint x="1047" y="210" as="targetPoint" />
          </mxGeometry>
        </mxCell>
        <mxCell id="8kW4jAhZoe792NYYrkYr-22" style="orthogonalLoop=1;jettySize=auto;html=1;curved=1;sourcePerimeterSpacing=5;targetPerimeterSpacing=5;entryX=0.5;entryY=0;entryDx=0;entryDy=0;exitX=0;exitY=0.5;exitDx=0;exitDy=0;" edge="1" parent="1" source="3ne1QswCM8ZiEu4GHsYG-9" target="8kW4jAhZoe792NYYrkYr-2">
          <mxGeometry relative="1" as="geometry">
            <Array as="points">
              <mxPoint x="491" y="200" />
            </Array>
            <mxPoint x="730" y="150" as="sourcePoint" />
            <mxPoint x="671.5" y="60" as="targetPoint" />
          </mxGeometry>
        </mxCell>
        <mxCell id="8kW4jAhZoe792NYYrkYr-23" style="orthogonalLoop=1;jettySize=auto;html=1;curved=1;sourcePerimeterSpacing=5;targetPerimeterSpacing=5;exitX=0;exitY=0.25;exitDx=0;exitDy=0;entryX=1;entryY=0.25;entryDx=0;entryDy=0;" edge="1" parent="1" source="3ne1QswCM8ZiEu4GHsYG-9" target="3ne1QswCM8ZiEu4GHsYG-5">
          <mxGeometry relative="1" as="geometry">
            <mxPoint x="551" y="4" as="sourcePoint" />
            <mxPoint x="551" y="186" as="targetPoint" />
          </mxGeometry>
        </mxCell>
        <mxCell id="8kW4jAhZoe792NYYrkYr-24" style="orthogonalLoop=1;jettySize=auto;html=1;curved=1;sourcePerimeterSpacing=5;targetPerimeterSpacing=5;exitX=0;exitY=0.75;exitDx=0;exitDy=0;entryX=1;entryY=0;entryDx=0;entryDy=0;" edge="1" parent="1" source="3ne1QswCM8ZiEu4GHsYG-9" target="8kW4jAhZoe792NYYrkYr-12">
          <mxGeometry relative="1" as="geometry">
            <Array as="points">
              <mxPoint x="651" y="180" />
            </Array>
            <mxPoint x="726" y="256" as="sourcePoint" />
            <mxPoint x="849" y="180" as="targetPoint" />
          </mxGeometry>
        </mxCell>
        <mxCell id="8kW4jAhZoe792NYYrkYr-25" style="orthogonalLoop=1;jettySize=auto;html=1;curved=1;sourcePerimeterSpacing=5;targetPerimeterSpacing=5;exitX=0;exitY=1;exitDx=0;exitDy=0;entryX=0.75;entryY=0;entryDx=0;entryDy=0;" edge="1" parent="1" source="8kW4jAhZoe792NYYrkYr-12" target="8kW4jAhZoe792NYYrkYr-2">
          <mxGeometry relative="1" as="geometry">
            <Array as="points">
              <mxPoint x="491" y="290" />
            </Array>
            <mxPoint x="496" y="223" as="sourcePoint" />
            <mxPoint x="371" y="285" as="targetPoint" />
          </mxGeometry>
        </mxCell>
        <mxCell id="8kW4jAhZoe792NYYrkYr-27" style="orthogonalLoop=1;jettySize=auto;html=1;curved=1;sourcePerimeterSpacing=5;targetPerimeterSpacing=5;entryX=0;entryY=0.25;entryDx=0;entryDy=0;" edge="1" parent="1" target="3ne1QswCM8ZiEu4GHsYG-7">
          <mxGeometry relative="1" as="geometry">
            <Array as="points">
              <mxPoint x="636" y="340" />
            </Array>
            <mxPoint x="601" y="290" as="sourcePoint" />
            <mxPoint x="580.5" y="354" as="targetPoint" />
          </mxGeometry>
        </mxCell>
        <mxCell id="8kW4jAhZoe792NYYrkYr-28" style="orthogonalLoop=1;jettySize=auto;html=1;curved=1;sourcePerimeterSpacing=5;targetPerimeterSpacing=5;entryX=0;entryY=1;entryDx=0;entryDy=0;exitX=1;exitY=0.25;exitDx=0;exitDy=0;" edge="1" parent="1" source="8kW4jAhZoe792NYYrkYr-12" target="3ne1QswCM8ZiEu4GHsYG-9">
          <mxGeometry relative="1" as="geometry">
            <Array as="points">
              <mxPoint x="681" y="220" />
            </Array>
            <mxPoint x="611" y="240" as="sourcePoint" />
            <mxPoint x="568" y="288" as="targetPoint" />
          </mxGeometry>
        </mxCell>
        <mxCell id="8kW4jAhZoe792NYYrkYr-29" style="orthogonalLoop=1;jettySize=auto;html=1;curved=1;sourcePerimeterSpacing=5;targetPerimeterSpacing=5;exitX=0.5;exitY=0;exitDx=0;exitDy=0;entryX=0.5;entryY=1;entryDx=0;entryDy=0;" edge="1" parent="1" source="3ne1QswCM8ZiEu4GHsYG-7" target="3ne1QswCM8ZiEu4GHsYG-9">
          <mxGeometry relative="1" as="geometry">
            <mxPoint x="777" y="178" as="sourcePoint" />
            <mxPoint x="777" y="360" as="targetPoint" />
          </mxGeometry>
        </mxCell>
        <mxCell id="8kW4jAhZoe792NYYrkYr-30" style="orthogonalLoop=1;jettySize=auto;html=1;curved=1;sourcePerimeterSpacing=5;targetPerimeterSpacing=5;entryX=1;entryY=0.75;entryDx=0;entryDy=0;exitX=0;exitY=0;exitDx=0;exitDy=0;" edge="1" parent="1" source="3ne1QswCM8ZiEu4GHsYG-7" target="8kW4jAhZoe792NYYrkYr-12">
          <mxGeometry relative="1" as="geometry">
            <Array as="points">
              <mxPoint x="691" y="280" />
            </Array>
            <mxPoint x="611" y="300" as="sourcePoint" />
            <mxPoint x="741" y="372" as="targetPoint" />
          </mxGeometry>
        </mxCell>
        <mxCell id="8kW4jAhZoe792NYYrkYr-31" style="orthogonalLoop=1;jettySize=auto;html=1;curved=1;sourcePerimeterSpacing=5;targetPerimeterSpacing=5;exitX=0;exitY=0.5;exitDx=0;exitDy=0;entryX=1;entryY=0.5;entryDx=0;entryDy=0;" edge="1" parent="1" source="3ne1QswCM8ZiEu4GHsYG-7" target="8kW4jAhZoe792NYYrkYr-2">
          <mxGeometry relative="1" as="geometry">
            <mxPoint x="430" y="461" as="sourcePoint" />
            <mxPoint x="726" y="460" as="targetPoint" />
          </mxGeometry>
        </mxCell>
      </root>
    </mxGraphModel>
  </diagram>
</mxfile>
